<svg width="18" height="18" viewBox="0 0 18 18" fill="none" xmlns="http://www.w3.org/2000/svg">
<path d="M15.7929 17.2071C16.1834 17.5976 16.8165 17.5976 17.2071 17.2071C17.5976 16.8165 17.5976 16.1834 17.2071 15.7929L15.7929 17.2071ZM2.20711 0.792893C1.81658 0.402369 1.18342 0.402369 0.792893 0.792893C0.402369 1.18342 0.402369 1.81658 0.792893 2.20711L2.20711 0.792893ZM17.2071 2.20711C17.5977 1.81658 17.5977 1.18342 17.2071 0.792893C16.8166 0.402369 16.1835 0.402369 15.7929 0.792893L17.2071 2.20711ZM0.792893 15.7929C0.402369 16.1835 0.402369 16.8166 0.792893 17.2071C1.18342 17.5977 1.81658 17.5977 2.20711 17.2071L0.792893 15.7929ZM17.2071 15.7929L9.70713 8.29291L8.29291 9.70713L15.7929 17.2071L17.2071 15.7929ZM9.70713 8.29291L2.20711 0.792893L0.792893 2.20711L8.29291 9.70713L9.70713 8.29291ZM15.7929 0.792893L8.29291 8.29291L9.70713 9.70713L17.2071 2.20711L15.7929 0.792893ZM8.29291 8.29291L0.792893 15.7929L2.20711 17.2071L9.70713 9.70713L8.29291 8.29291Z" fill="#0E0024"/>
</svg>
