<?xml version="1.0" encoding="UTF-8"?> <svg xmlns="http://www.w3.org/2000/svg" id="Слой_1" data-name="Слой 1" viewBox="0 0 448.21 162.4"> <defs> <style>.cls-1{fill:#44ab45;}.cls-2{fill:#fff;}</style> </defs> <path class="cls-1" d="M49.21,72.69,35.6,121.35c0-.18,2.72-11.8,3.94-45.21,2.49-.72,2.94-1.11,5.54-2C46.45,73.68,47.83,73.19,49.21,72.69Z"></path> <path class="cls-1" d="M133.2,75.16,87.12,54.91c1.28-.75,2.55-1.5,3.79-2.26,2.33-1.42,3-1.83,5.17-3.26h0C122.32,69.34,132.92,75,133.2,75.16Z"></path> <path class="cls-1" d="M82.29,58.37A36.84,36.84,0,0,1,55.05,71.18c4.49-1.86,9-3.88,13.63-6.05l.44-.21.18-.09.19-.08.19-.1.18-.08.45-.21C74.4,62.42,78.41,60.42,82.29,58.37Z"></path> <path class="cls-2" d="M118.74,16.19c3.14,6.64-9.73,19.68-30.58,32.27A223.66,223.66,0,0,1,67.91,59.29l-.8.38h0l-.8.38a226.45,226.45,0,0,1-22.64,9.3C21.36,77.05,3.8,78.54.72,72c0,0-4.1-4.88,7.25-19.36a7.37,7.37,0,0,0,3,1.58,24.13,24.13,0,0,0,12.53-.55,32.49,32.49,0,0,0,4.6,2.41A32.11,32.11,0,0,0,36,58.34a30.85,30.85,0,0,0,17.87-2.63L70.6,47.78A31.11,31.11,0,0,0,86.82,29.46q.42-1.28.75-2.55a33,33,0,0,0-.17-16.75C117.25,8.4,118.74,16.19,118.74,16.19Z"></path> <path class="cls-1" d="M110.76,162.4H99.42v-9.72H76.21v9.72H64.87V142.16H69.6a71.89,71.89,0,0,0,3.71-15,151.47,151.47,0,0,0,1.14-20.55v-2h30.84v37.52h5.47ZM93.48,142.16v-27H85.93v1.35a76,76,0,0,1-4.32,25.64Z"></path> <path class="cls-1" d="M154.42,152.68H142.61V126.5l-15.39,26.18H116.9v-48h11.81v26.18l15.38-26.18h10.33Z"></path> <path class="cls-1" d="M200,138.58A13.44,13.44,0,0,1,196,148.84q-4.08,3.84-10.9,3.84H164.13v-48H184q7,0,11.17,3.64a12.48,12.48,0,0,1,4.15,9.86,11.77,11.77,0,0,1-5.27,9.91,13.34,13.34,0,0,1,4.56,4.46A12.14,12.14,0,0,1,200,138.58ZM186.43,122a4.24,4.24,0,0,0,0-5.74,4.37,4.37,0,0,0-3.13-1h-7.36v7.83h7.36A4.41,4.41,0,0,0,186.43,122Zm.64,18.92a4.17,4.17,0,0,0,1.15-3.1,4,4,0,0,0-1.15-3.07,4.36,4.36,0,0,0-3.17-1.11h-8v8.43h8A4.26,4.26,0,0,0,187.07,140.94Z"></path> <path class="cls-2" d="M240.85,152.68H208.2v-48h32.65v10.53H220v8h17.82v10.52H220v8.44h20.85Z"></path> <path class="cls-2" d="M280.26,109.19a15.73,15.73,0,0,1,0,21.8q-4.38,4.56-12,4.55H261v17.14H249.22v-48h19Q275.87,104.64,280.26,109.19Zm-8.84,14.31a4.8,4.8,0,0,0,0-6.82,5,5,0,0,0-3.71-1.45H261V125h6.68A4.93,4.93,0,0,0,271.42,123.5Z"></path> <path class="cls-2" d="M322.16,115.17H303v37.51H291.19v-48h31Z"></path> <path class="cls-2" d="M361.37,152.68H328.71v-48h32.66v10.53H340.52v8h17.81v10.52H340.52v8.44h20.85Z"></path> <path class="cls-2" d="M405.9,152.68H394.1v-19H381.54v19h-11.8v-48h11.8v18.49H394.1V104.64h11.8Z"></path> <path class="cls-2" d="M448.21,115.17H436.4v37.51H424.59V115.17h-11.8V104.64h35.42Z"></path> <path class="cls-1" d="M47.8,2.21,32.4,9.49A22.68,22.68,0,0,0,20.43,37h0c0,.11.07.21.1.31.42,1.36,1.7,6.94-3.65,11.86a15.54,15.54,0,0,0,10.65-1.78A22.75,22.75,0,0,0,51.7,50.27L67.1,43A22.66,22.66,0,0,0,78,12.87h0A22.65,22.65,0,0,0,47.8,2.21Z"></path> <ellipse class="cls-2" cx="49.89" cy="26.53" rx="4.09" ry="4.05" transform="translate(-6.55 23.89) rotate(-25.32)"></ellipse> <ellipse class="cls-2" cx="35.55" cy="33.32" rx="4.09" ry="4.05" transform="translate(-10.83 18.41) rotate(-25.32)"></ellipse> <ellipse class="cls-2" cx="64.22" cy="19.75" rx="4.09" ry="4.05" transform="translate(-2.28 29.37) rotate(-25.32)"></ellipse> </svg> 